<?xml version="1.0" encoding="utf-8" standalone="no"?>
<!DOCTYPE svg PUBLIC "-//W3C//DTD SVG 1.1//EN"
  "http://www.w3.org/Graphics/SVG/1.1/DTD/svg11.dtd">
<svg xmlns:xlink="http://www.w3.org/1999/xlink" width="648pt" height="288pt" viewBox="0 0 648 288" xmlns="http://www.w3.org/2000/svg" version="1.1">
 <metadata>
  <rdf:RDF xmlns:dc="http://purl.org/dc/elements/1.1/" xmlns:cc="http://creativecommons.org/ns#" xmlns:rdf="http://www.w3.org/1999/02/22-rdf-syntax-ns#">
   <cc:Work>
    <dc:type rdf:resource="http://purl.org/dc/dcmitype/StillImage"/>
    <dc:date>2023-02-10T14:41:20.423928</dc:date>
    <dc:format>image/svg+xml</dc:format>
    <dc:creator>
     <cc:Agent>
      <dc:title>Matplotlib v3.5.1, https://matplotlib.org/</dc:title>
     </cc:Agent>
    </dc:creator>
   </cc:Work>
  </rdf:RDF>
 </metadata>
 <defs>
  <style type="text/css">*{stroke-linejoin: round; stroke-linecap: butt}</style>
 </defs>
 <g id="figure_1">
  <g id="patch_1">
   <path d="M 0 288 
L 648 288 
L 648 0 
L 0 0 
z
" style="fill: #ffffff"/>
  </g>
  <g id="axes_1">
   <g id="patch_2">
    <path d="M 38.27 121.27 
L 208.047572 121.27 
L 208.047572 10.8 
L 38.27 10.8 
z
" style="fill: #ffffff"/>
   </g>
   <g id="PolyCollection_1"/>
   <g id="matplotlib.axis_1">
    <g id="xtick_1">
     <g id="line2d_1">
      <defs>
       <path id="m7c56c2b8d1" d="M 0 0 
L 0 3.5 
" style="stroke: #000000; stroke-width: 0.8"/>
      </defs>
      <g>
       <use xlink:href="#m7c56c2b8d1" x="45.871981" y="121.27" style="stroke: #000000; stroke-width: 0.8"/>
      </g>
     </g>
    </g>
    <g id="xtick_2">
     <g id="line2d_2">
      <g>
       <use xlink:href="#m7c56c2b8d1" x="86.415879" y="121.27" style="stroke: #000000; stroke-width: 0.8"/>
      </g>
     </g>
    </g>
    <g id="xtick_3">
     <g id="line2d_3">
      <g>
       <use xlink:href="#m7c56c2b8d1" x="126.959776" y="121.27" style="stroke: #000000; stroke-width: 0.8"/>
      </g>
     </g>
    </g>
    <g id="xtick_4">
     <g id="line2d_4">
      <g>
       <use xlink:href="#m7c56c2b8d1" x="167.503674" y="121.27" style="stroke: #000000; stroke-width: 0.8"/>
      </g>
     </g>
    </g>
    <g id="xtick_5">
     <g id="line2d_5">
      <g>
       <use xlink:href="#m7c56c2b8d1" x="208.047572" y="121.27" style="stroke: #000000; stroke-width: 0.8"/>
      </g>
     </g>
    </g>
   </g>
   <g id="matplotlib.axis_2">
    <g id="ytick_1">
     <g id="line2d_6">
      <defs>
       <path id="ma6901b303a" d="M 0 0 
L -3.5 0 
" style="stroke: #000000; stroke-width: 0.8"/>
      </defs>
      <g>
       <use xlink:href="#ma6901b303a" x="38.27" y="116.248636" style="stroke: #000000; stroke-width: 0.8"/>
      </g>
     </g>
     <g id="text_1">
      <!-- 0 -->
      <g transform="translate(24.9075 120.047855)scale(0.1 -0.1)">
       <defs>
        <path id="DejaVuSans-30" d="M 2034 4250 
Q 1547 4250 1301 3770 
Q 1056 3291 1056 2328 
Q 1056 1369 1301 889 
Q 1547 409 2034 409 
Q 2525 409 2770 889 
Q 3016 1369 3016 2328 
Q 3016 3291 2770 3770 
Q 2525 4250 2034 4250 
z
M 2034 4750 
Q 2819 4750 3233 4129 
Q 3647 3509 3647 2328 
Q 3647 1150 3233 529 
Q 2819 -91 2034 -91 
Q 1250 -91 836 529 
Q 422 1150 422 2328 
Q 422 3509 836 4129 
Q 1250 4750 2034 4750 
z
" transform="scale(0.015625)"/>
       </defs>
       <use xlink:href="#DejaVuSans-30"/>
      </g>
     </g>
    </g>
    <g id="ytick_2">
     <g id="line2d_7">
      <g>
       <use xlink:href="#ma6901b303a" x="38.27" y="87.279231" style="stroke: #000000; stroke-width: 0.8"/>
      </g>
     </g>
     <g id="text_2">
      <!-- 3 -->
      <g transform="translate(24.9075 91.07845)scale(0.1 -0.1)">
       <defs>
        <path id="DejaVuSans-33" d="M 2597 2516 
Q 3050 2419 3304 2112 
Q 3559 1806 3559 1356 
Q 3559 666 3084 287 
Q 2609 -91 1734 -91 
Q 1441 -91 1130 -33 
Q 819 25 488 141 
L 488 750 
Q 750 597 1062 519 
Q 1375 441 1716 441 
Q 2309 441 2620 675 
Q 2931 909 2931 1356 
Q 2931 1769 2642 2001 
Q 2353 2234 1838 2234 
L 1294 2234 
L 1294 2753 
L 1863 2753 
Q 2328 2753 2575 2939 
Q 2822 3125 2822 3475 
Q 2822 3834 2567 4026 
Q 2313 4219 1838 4219 
Q 1578 4219 1281 4162 
Q 984 4106 628 3988 
L 628 4550 
Q 988 4650 1302 4700 
Q 1616 4750 1894 4750 
Q 2613 4750 3031 4423 
Q 3450 4097 3450 3541 
Q 3450 3153 3228 2886 
Q 3006 2619 2597 2516 
z
" transform="scale(0.015625)"/>
       </defs>
       <use xlink:href="#DejaVuSans-33"/>
      </g>
     </g>
    </g>
    <g id="ytick_3">
     <g id="line2d_8">
      <g>
       <use xlink:href="#ma6901b303a" x="38.27" y="58.309825" style="stroke: #000000; stroke-width: 0.8"/>
      </g>
     </g>
     <g id="text_3">
      <!-- 6 -->
      <g transform="translate(24.9075 62.109044)scale(0.1 -0.1)">
       <defs>
        <path id="DejaVuSans-36" d="M 2113 2584 
Q 1688 2584 1439 2293 
Q 1191 2003 1191 1497 
Q 1191 994 1439 701 
Q 1688 409 2113 409 
Q 2538 409 2786 701 
Q 3034 994 3034 1497 
Q 3034 2003 2786 2293 
Q 2538 2584 2113 2584 
z
M 3366 4563 
L 3366 3988 
Q 3128 4100 2886 4159 
Q 2644 4219 2406 4219 
Q 1781 4219 1451 3797 
Q 1122 3375 1075 2522 
Q 1259 2794 1537 2939 
Q 1816 3084 2150 3084 
Q 2853 3084 3261 2657 
Q 3669 2231 3669 1497 
Q 3669 778 3244 343 
Q 2819 -91 2113 -91 
Q 1303 -91 875 529 
Q 447 1150 447 2328 
Q 447 3434 972 4092 
Q 1497 4750 2381 4750 
Q 2619 4750 2861 4703 
Q 3103 4656 3366 4563 
z
" transform="scale(0.015625)"/>
       </defs>
       <use xlink:href="#DejaVuSans-36"/>
      </g>
     </g>
    </g>
    <g id="ytick_4">
     <g id="line2d_9">
      <g>
       <use xlink:href="#ma6901b303a" x="38.27" y="29.34042" style="stroke: #000000; stroke-width: 0.8"/>
      </g>
     </g>
     <g id="text_4">
      <!-- 9 -->
      <g transform="translate(24.9075 33.139638)scale(0.1 -0.1)">
       <defs>
        <path id="DejaVuSans-39" d="M 703 97 
L 703 672 
Q 941 559 1184 500 
Q 1428 441 1663 441 
Q 2288 441 2617 861 
Q 2947 1281 2994 2138 
Q 2813 1869 2534 1725 
Q 2256 1581 1919 1581 
Q 1219 1581 811 2004 
Q 403 2428 403 3163 
Q 403 3881 828 4315 
Q 1253 4750 1959 4750 
Q 2769 4750 3195 4129 
Q 3622 3509 3622 2328 
Q 3622 1225 3098 567 
Q 2575 -91 1691 -91 
Q 1453 -91 1209 -44 
Q 966 3 703 97 
z
M 1959 2075 
Q 2384 2075 2632 2365 
Q 2881 2656 2881 3163 
Q 2881 3666 2632 3958 
Q 2384 4250 1959 4250 
Q 1534 4250 1286 3958 
Q 1038 3666 1038 3163 
Q 1038 2656 1286 2365 
Q 1534 2075 1959 2075 
z
" transform="scale(0.015625)"/>
       </defs>
       <use xlink:href="#DejaVuSans-39"/>
      </g>
     </g>
    </g>
    <g id="text_5">
     <!-- Logins -->
     <g transform="translate(18.827813 82.129531)rotate(-90)scale(0.1 -0.1)">
      <defs>
       <path id="DejaVuSans-4c" d="M 628 4666 
L 1259 4666 
L 1259 531 
L 3531 531 
L 3531 0 
L 628 0 
L 628 4666 
z
" transform="scale(0.015625)"/>
       <path id="DejaVuSans-6f" d="M 1959 3097 
Q 1497 3097 1228 2736 
Q 959 2375 959 1747 
Q 959 1119 1226 758 
Q 1494 397 1959 397 
Q 2419 397 2687 759 
Q 2956 1122 2956 1747 
Q 2956 2369 2687 2733 
Q 2419 3097 1959 3097 
z
M 1959 3584 
Q 2709 3584 3137 3096 
Q 3566 2609 3566 1747 
Q 3566 888 3137 398 
Q 2709 -91 1959 -91 
Q 1206 -91 779 398 
Q 353 888 353 1747 
Q 353 2609 779 3096 
Q 1206 3584 1959 3584 
z
" transform="scale(0.015625)"/>
       <path id="DejaVuSans-67" d="M 2906 1791 
Q 2906 2416 2648 2759 
Q 2391 3103 1925 3103 
Q 1463 3103 1205 2759 
Q 947 2416 947 1791 
Q 947 1169 1205 825 
Q 1463 481 1925 481 
Q 2391 481 2648 825 
Q 2906 1169 2906 1791 
z
M 3481 434 
Q 3481 -459 3084 -895 
Q 2688 -1331 1869 -1331 
Q 1566 -1331 1297 -1286 
Q 1028 -1241 775 -1147 
L 775 -588 
Q 1028 -725 1275 -790 
Q 1522 -856 1778 -856 
Q 2344 -856 2625 -561 
Q 2906 -266 2906 331 
L 2906 616 
Q 2728 306 2450 153 
Q 2172 0 1784 0 
Q 1141 0 747 490 
Q 353 981 353 1791 
Q 353 2603 747 3093 
Q 1141 3584 1784 3584 
Q 2172 3584 2450 3431 
Q 2728 3278 2906 2969 
L 2906 3500 
L 3481 3500 
L 3481 434 
z
" transform="scale(0.015625)"/>
       <path id="DejaVuSans-69" d="M 603 3500 
L 1178 3500 
L 1178 0 
L 603 0 
L 603 3500 
z
M 603 4863 
L 1178 4863 
L 1178 4134 
L 603 4134 
L 603 4863 
z
" transform="scale(0.015625)"/>
       <path id="DejaVuSans-6e" d="M 3513 2113 
L 3513 0 
L 2938 0 
L 2938 2094 
Q 2938 2591 2744 2837 
Q 2550 3084 2163 3084 
Q 1697 3084 1428 2787 
Q 1159 2491 1159 1978 
L 1159 0 
L 581 0 
L 581 3500 
L 1159 3500 
L 1159 2956 
Q 1366 3272 1645 3428 
Q 1925 3584 2291 3584 
Q 2894 3584 3203 3211 
Q 3513 2838 3513 2113 
z
" transform="scale(0.015625)"/>
       <path id="DejaVuSans-73" d="M 2834 3397 
L 2834 2853 
Q 2591 2978 2328 3040 
Q 2066 3103 1784 3103 
Q 1356 3103 1142 2972 
Q 928 2841 928 2578 
Q 928 2378 1081 2264 
Q 1234 2150 1697 2047 
L 1894 2003 
Q 2506 1872 2764 1633 
Q 3022 1394 3022 966 
Q 3022 478 2636 193 
Q 2250 -91 1575 -91 
Q 1294 -91 989 -36 
Q 684 19 347 128 
L 347 722 
Q 666 556 975 473 
Q 1284 391 1588 391 
Q 1994 391 2212 530 
Q 2431 669 2431 922 
Q 2431 1156 2273 1281 
Q 2116 1406 1581 1522 
L 1381 1569 
Q 847 1681 609 1914 
Q 372 2147 372 2553 
Q 372 3047 722 3315 
Q 1072 3584 1716 3584 
Q 2034 3584 2315 3537 
Q 2597 3491 2834 3397 
z
" transform="scale(0.015625)"/>
      </defs>
      <use xlink:href="#DejaVuSans-4c"/>
      <use xlink:href="#DejaVuSans-6f" x="53.962891"/>
      <use xlink:href="#DejaVuSans-67" x="115.144531"/>
      <use xlink:href="#DejaVuSans-69" x="178.621094"/>
      <use xlink:href="#DejaVuSans-6e" x="206.404297"/>
      <use xlink:href="#DejaVuSans-73" x="269.783203"/>
     </g>
    </g>
   </g>
   <g id="line2d_10">
    <path d="M 45.871981 116.248636 
L 56.007955 52.274532 
L 66.14393 65.069353 
L 76.279904 30.413361 
L 86.415879 26.443479 
L 96.551853 53.481591 
L 106.687828 21.829833 
L 116.823802 33.632183 
L 126.959776 69.039235 
L 137.095751 65.820412 
L 147.231725 86.20629 
L 157.3677 111.956873 
L 167.503674 116.248636 
L 177.639649 116.248636 
L 187.775623 116.248636 
L 197.911598 116.248636 
" clip-path="url(#pe3c2b77e2b)" style="fill: none; stroke: #b2b2b2; stroke-linecap: square"/>
   </g>
   <g id="line2d_11">
    <path d="M 45.871981 116.248636 
L 56.007955 69.039235 
L 66.14393 69.039235 
L 76.279904 38.996888 
L 86.415879 37.065594 
L 96.551853 25.048656 
L 106.687828 49.619003 
L 116.823802 54.447238 
L 126.959776 63.138059 
L 137.095751 55.412885 
L 147.231725 30.306066 
L 157.3677 31.271713 
L 167.503674 59.275472 
L 177.639649 106.592168 
L 187.775623 116.248636 
L 197.911598 116.248636 
" clip-path="url(#pe3c2b77e2b)" style="fill: none; stroke: #b2b2b2; stroke-linecap: square"/>
   </g>
   <g id="line2d_12">
    <path d="M 45.871981 116.248636 
L 56.007955 113.834519 
L 66.14393 89.693348 
L 76.279904 44.361593 
L 86.415879 55.091002 
L 96.551853 99.081581 
L 106.687828 116.248636 
L 116.823802 116.248636 
L 126.959776 116.248636 
L 137.095751 116.248636 
L 147.231725 116.248636 
L 157.3677 116.248636 
L 167.503674 116.248636 
L 177.639649 116.248636 
L 187.775623 116.248636 
L 197.911598 116.248636 
" clip-path="url(#pe3c2b77e2b)" style="fill: none; stroke: #b2b2b2; stroke-linecap: square"/>
   </g>
   <g id="line2d_13">
    <path d="M 45.871981 116.248636 
L 56.007955 71.477737 
L 66.14393 78.588409 
L 76.279904 46.019774 
L 86.415879 49.619003 
L 96.551853 47.68771 
L 106.687828 54.798382 
L 116.823802 70.599876 
L 126.959776 73.233458 
L 137.095751 70.599876 
L 147.231725 57.431964 
L 157.3677 61.821268 
L 167.503674 87.279231 
L 177.639649 108.347889 
L 187.775623 116.248636 
L 197.911598 116.248636 
" clip-path="url(#pe3c2b77e2b)" style="fill: none; stroke: #b2b2b2; stroke-linecap: square"/>
   </g>
   <g id="line2d_14">
    <path d="M 45.871981 116.248636 
L 56.007955 15.821364 
L 66.14393 57.344178 
L 76.279904 57.344178 
L 86.415879 50.58465 
L 96.551853 31.271713 
L 106.687828 50.58465 
L 116.823802 66.035 
L 126.959776 65.069353 
L 137.095751 57.344178 
L 147.231725 53.481591 
L 157.3677 54.798382 
L 167.503674 76.744901 
L 177.639649 107.470029 
L 187.775623 116.248636 
L 197.911598 116.248636 
" clip-path="url(#pe3c2b77e2b)" style="fill: none; stroke: #b2b2b2; stroke-linecap: square"/>
   </g>
   <g id="line2d_15">
    <path d="M 45.871981 116.248636 
L 56.007955 50.409078 
L 66.14393 67.966294 
L 76.279904 50.409078 
L 86.415879 48.653357 
L 96.551853 37.241167 
L 106.687828 46.019774 
L 116.823802 58.309825 
L 126.959776 68.844154 
L 137.095751 47.775496 
L 147.231725 32.851863 
L 157.3677 50.409078 
L 167.503674 82.889927 
L 177.639649 113.615054 
L 187.775623 116.248636 
L 197.911598 116.248636 
" clip-path="url(#pe3c2b77e2b)" style="fill: none; stroke: #b2b2b2; stroke-linecap: square"/>
   </g>
   <g id="patch_3">
    <path d="M 38.27 121.27 
L 38.27 10.8 
" style="fill: none; stroke: #000000; stroke-width: 0.8; stroke-linejoin: miter; stroke-linecap: square"/>
   </g>
   <g id="patch_4">
    <path d="M 38.27 121.27 
L 208.047572 121.27 
" style="fill: none; stroke: #000000; stroke-width: 0.8; stroke-linejoin: miter; stroke-linecap: square"/>
   </g>
   <g id="text_6">
    <!-- Monday -->
    <g transform="translate(174.092058 27.3705)scale(0.1 -0.1)">
     <defs>
      <path id="DejaVuSans-Bold-4d" d="M 588 4666 
L 2119 4666 
L 3181 2169 
L 4250 4666 
L 5778 4666 
L 5778 0 
L 4641 0 
L 4641 3413 
L 3566 897 
L 2803 897 
L 1728 3413 
L 1728 0 
L 588 0 
L 588 4666 
z
" transform="scale(0.015625)"/>
      <path id="DejaVuSans-Bold-6f" d="M 2203 2784 
Q 1831 2784 1636 2517 
Q 1441 2250 1441 1747 
Q 1441 1244 1636 976 
Q 1831 709 2203 709 
Q 2569 709 2762 976 
Q 2956 1244 2956 1747 
Q 2956 2250 2762 2517 
Q 2569 2784 2203 2784 
z
M 2203 3584 
Q 3106 3584 3614 3096 
Q 4122 2609 4122 1747 
Q 4122 884 3614 396 
Q 3106 -91 2203 -91 
Q 1297 -91 786 396 
Q 275 884 275 1747 
Q 275 2609 786 3096 
Q 1297 3584 2203 3584 
z
" transform="scale(0.015625)"/>
      <path id="DejaVuSans-Bold-6e" d="M 4056 2131 
L 4056 0 
L 2931 0 
L 2931 347 
L 2931 1631 
Q 2931 2084 2911 2256 
Q 2891 2428 2841 2509 
Q 2775 2619 2662 2680 
Q 2550 2741 2406 2741 
Q 2056 2741 1856 2470 
Q 1656 2200 1656 1722 
L 1656 0 
L 538 0 
L 538 3500 
L 1656 3500 
L 1656 2988 
Q 1909 3294 2193 3439 
Q 2478 3584 2822 3584 
Q 3428 3584 3742 3212 
Q 4056 2841 4056 2131 
z
" transform="scale(0.015625)"/>
      <path id="DejaVuSans-Bold-64" d="M 2919 2988 
L 2919 4863 
L 4044 4863 
L 4044 0 
L 2919 0 
L 2919 506 
Q 2688 197 2409 53 
Q 2131 -91 1766 -91 
Q 1119 -91 703 423 
Q 288 938 288 1747 
Q 288 2556 703 3070 
Q 1119 3584 1766 3584 
Q 2128 3584 2408 3439 
Q 2688 3294 2919 2988 
z
M 2181 722 
Q 2541 722 2730 984 
Q 2919 1247 2919 1747 
Q 2919 2247 2730 2509 
Q 2541 2772 2181 2772 
Q 1825 2772 1636 2509 
Q 1447 2247 1447 1747 
Q 1447 1247 1636 984 
Q 1825 722 2181 722 
z
" transform="scale(0.015625)"/>
      <path id="DejaVuSans-Bold-61" d="M 2106 1575 
Q 1756 1575 1579 1456 
Q 1403 1338 1403 1106 
Q 1403 894 1545 773 
Q 1688 653 1941 653 
Q 2256 653 2472 879 
Q 2688 1106 2688 1447 
L 2688 1575 
L 2106 1575 
z
M 3816 1997 
L 3816 0 
L 2688 0 
L 2688 519 
Q 2463 200 2181 54 
Q 1900 -91 1497 -91 
Q 953 -91 614 226 
Q 275 544 275 1050 
Q 275 1666 698 1953 
Q 1122 2241 2028 2241 
L 2688 2241 
L 2688 2328 
Q 2688 2594 2478 2717 
Q 2269 2841 1825 2841 
Q 1466 2841 1156 2769 
Q 847 2697 581 2553 
L 581 3406 
Q 941 3494 1303 3539 
Q 1666 3584 2028 3584 
Q 2975 3584 3395 3211 
Q 3816 2838 3816 1997 
z
" transform="scale(0.015625)"/>
      <path id="DejaVuSans-Bold-79" d="M 78 3500 
L 1197 3500 
L 2138 1125 
L 2938 3500 
L 4056 3500 
L 2584 -331 
Q 2363 -916 2067 -1148 
Q 1772 -1381 1288 -1381 
L 641 -1381 
L 641 -647 
L 991 -647 
Q 1275 -647 1404 -556 
Q 1534 -466 1606 -231 
L 1638 -134 
L 78 3500 
z
" transform="scale(0.015625)"/>
     </defs>
     <use xlink:href="#DejaVuSans-Bold-4d"/>
     <use xlink:href="#DejaVuSans-Bold-6f" x="99.511719"/>
     <use xlink:href="#DejaVuSans-Bold-6e" x="168.212891"/>
     <use xlink:href="#DejaVuSans-Bold-64" x="239.404297"/>
     <use xlink:href="#DejaVuSans-Bold-61" x="310.986328"/>
     <use xlink:href="#DejaVuSans-Bold-79" x="375.341797"/>
    </g>
   </g>
   <g id="line2d_16">
    <path d="M 45.871981 116.248636 
L 56.007955 69.039235 
L 66.14393 69.039235 
L 76.279904 38.996888 
L 86.415879 37.065594 
L 96.551853 25.048656 
L 106.687828 49.619003 
L 116.823802 54.447238 
L 126.959776 63.138059 
L 137.095751 55.412885 
L 147.231725 30.306066 
L 157.3677 31.271713 
L 167.503674 59.275472 
L 177.639649 106.592168 
L 187.775623 116.248636 
L 197.911598 116.248636 
" clip-path="url(#pe3c2b77e2b)" style="fill: none; stroke: #e3685c; stroke-width: 4; stroke-linecap: square"/>
   </g>
  </g>
  <g id="axes_2">
   <g id="patch_5">
    <path d="M 239.337214 121.27 
L 409.114786 121.27 
L 409.114786 10.8 
L 239.337214 10.8 
z
" style="fill: #ffffff"/>
   </g>
   <g id="PolyCollection_2"/>
   <g id="matplotlib.axis_3">
    <g id="xtick_6">
     <g id="line2d_17">
      <g>
       <use xlink:href="#m7c56c2b8d1" x="246.939195" y="121.27" style="stroke: #000000; stroke-width: 0.8"/>
      </g>
     </g>
    </g>
    <g id="xtick_7">
     <g id="line2d_18">
      <g>
       <use xlink:href="#m7c56c2b8d1" x="287.483093" y="121.27" style="stroke: #000000; stroke-width: 0.8"/>
      </g>
     </g>
    </g>
    <g id="xtick_8">
     <g id="line2d_19">
      <g>
       <use xlink:href="#m7c56c2b8d1" x="328.02699" y="121.27" style="stroke: #000000; stroke-width: 0.8"/>
      </g>
     </g>
    </g>
    <g id="xtick_9">
     <g id="line2d_20">
      <g>
       <use xlink:href="#m7c56c2b8d1" x="368.570888" y="121.27" style="stroke: #000000; stroke-width: 0.8"/>
      </g>
     </g>
    </g>
    <g id="xtick_10">
     <g id="line2d_21">
      <g>
       <use xlink:href="#m7c56c2b8d1" x="409.114786" y="121.27" style="stroke: #000000; stroke-width: 0.8"/>
      </g>
     </g>
    </g>
   </g>
   <g id="matplotlib.axis_4">
    <g id="ytick_5">
     <g id="line2d_22">
      <g>
       <use xlink:href="#ma6901b303a" x="239.337214" y="116.248636" style="stroke: #000000; stroke-width: 0.8"/>
      </g>
     </g>
    </g>
    <g id="ytick_6">
     <g id="line2d_23">
      <g>
       <use xlink:href="#ma6901b303a" x="239.337214" y="87.279231" style="stroke: #000000; stroke-width: 0.8"/>
      </g>
     </g>
    </g>
    <g id="ytick_7">
     <g id="line2d_24">
      <g>
       <use xlink:href="#ma6901b303a" x="239.337214" y="58.309825" style="stroke: #000000; stroke-width: 0.8"/>
      </g>
     </g>
    </g>
    <g id="ytick_8">
     <g id="line2d_25">
      <g>
       <use xlink:href="#ma6901b303a" x="239.337214" y="29.34042" style="stroke: #000000; stroke-width: 0.8"/>
      </g>
     </g>
    </g>
   </g>
   <g id="line2d_26">
    <path d="M 246.939195 116.248636 
L 257.075169 52.274532 
L 267.211144 65.069353 
L 277.347118 30.413361 
L 287.483093 26.443479 
L 297.619067 53.481591 
L 307.755042 21.829833 
L 317.891016 33.632183 
L 328.02699 69.039235 
L 338.162965 65.820412 
L 348.298939 86.20629 
L 358.434914 111.956873 
L 368.570888 116.248636 
L 378.706863 116.248636 
L 388.842837 116.248636 
L 398.978812 116.248636 
" clip-path="url(#pfab82ac3a1)" style="fill: none; stroke: #b2b2b2; stroke-linecap: square"/>
   </g>
   <g id="line2d_27">
    <path d="M 246.939195 116.248636 
L 257.075169 69.039235 
L 267.211144 69.039235 
L 277.347118 38.996888 
L 287.483093 37.065594 
L 297.619067 25.048656 
L 307.755042 49.619003 
L 317.891016 54.447238 
L 328.02699 63.138059 
L 338.162965 55.412885 
L 348.298939 30.306066 
L 358.434914 31.271713 
L 368.570888 59.275472 
L 378.706863 106.592168 
L 388.842837 116.248636 
L 398.978812 116.248636 
" clip-path="url(#pfab82ac3a1)" style="fill: none; stroke: #b2b2b2; stroke-linecap: square"/>
   </g>
   <g id="line2d_28">
    <path d="M 246.939195 116.248636 
L 257.075169 113.834519 
L 267.211144 89.693348 
L 277.347118 44.361593 
L 287.483093 55.091002 
L 297.619067 99.081581 
L 307.755042 116.248636 
L 317.891016 116.248636 
L 328.02699 116.248636 
L 338.162965 116.248636 
L 348.298939 116.248636 
L 358.434914 116.248636 
L 368.570888 116.248636 
L 378.706863 116.248636 
L 388.842837 116.248636 
L 398.978812 116.248636 
" clip-path="url(#pfab82ac3a1)" style="fill: none; stroke: #b2b2b2; stroke-linecap: square"/>
   </g>
   <g id="line2d_29">
    <path d="M 246.939195 116.248636 
L 257.075169 71.477737 
L 267.211144 78.588409 
L 277.347118 46.019774 
L 287.483093 49.619003 
L 297.619067 47.68771 
L 307.755042 54.798382 
L 317.891016 70.599876 
L 328.02699 73.233458 
L 338.162965 70.599876 
L 348.298939 57.431964 
L 358.434914 61.821268 
L 368.570888 87.279231 
L 378.706863 108.347889 
L 388.842837 116.248636 
L 398.978812 116.248636 
" clip-path="url(#pfab82ac3a1)" style="fill: none; stroke: #b2b2b2; stroke-linecap: square"/>
   </g>
   <g id="line2d_30">
    <path d="M 246.939195 116.248636 
L 257.075169 15.821364 
L 267.211144 57.344178 
L 277.347118 57.344178 
L 287.483093 50.58465 
L 297.619067 31.271713 
L 307.755042 50.58465 
L 317.891016 66.035 
L 328.02699 65.069353 
L 338.162965 57.344178 
L 348.298939 53.481591 
L 358.434914 54.798382 
L 368.570888 76.744901 
L 378.706863 107.470029 
L 388.842837 116.248636 
L 398.978812 116.248636 
" clip-path="url(#pfab82ac3a1)" style="fill: none; stroke: #b2b2b2; stroke-linecap: square"/>
   </g>
   <g id="line2d_31">
    <path d="M 246.939195 116.248636 
L 257.075169 50.409078 
L 267.211144 67.966294 
L 277.347118 50.409078 
L 287.483093 48.653357 
L 297.619067 37.241167 
L 307.755042 46.019774 
L 317.891016 58.309825 
L 328.02699 68.844154 
L 338.162965 47.775496 
L 348.298939 32.851863 
L 358.434914 50.409078 
L 368.570888 82.889927 
L 378.706863 113.615054 
L 388.842837 116.248636 
L 398.978812 116.248636 
" clip-path="url(#pfab82ac3a1)" style="fill: none; stroke: #b2b2b2; stroke-linecap: square"/>
   </g>
   <g id="patch_6">
    <path d="M 239.337214 121.27 
L 239.337214 10.8 
" style="fill: none; stroke: #000000; stroke-width: 0.8; stroke-linejoin: miter; stroke-linecap: square"/>
   </g>
   <g id="patch_7">
    <path d="M 239.337214 121.27 
L 409.114786 121.27 
" style="fill: none; stroke: #000000; stroke-width: 0.8; stroke-linejoin: miter; stroke-linecap: square"/>
   </g>
   <g id="text_7">
    <!-- Tuesday -->
    <g transform="translate(375.159272 27.3705)scale(0.1 -0.1)">
     <defs>
      <path id="DejaVuSans-Bold-54" d="M 31 4666 
L 4331 4666 
L 4331 3756 
L 2784 3756 
L 2784 0 
L 1581 0 
L 1581 3756 
L 31 3756 
L 31 4666 
z
" transform="scale(0.015625)"/>
      <path id="DejaVuSans-Bold-75" d="M 500 1363 
L 500 3500 
L 1625 3500 
L 1625 3150 
Q 1625 2866 1622 2436 
Q 1619 2006 1619 1863 
Q 1619 1441 1641 1255 
Q 1663 1069 1716 984 
Q 1784 875 1895 815 
Q 2006 756 2150 756 
Q 2500 756 2700 1025 
Q 2900 1294 2900 1772 
L 2900 3500 
L 4019 3500 
L 4019 0 
L 2900 0 
L 2900 506 
Q 2647 200 2364 54 
Q 2081 -91 1741 -91 
Q 1134 -91 817 281 
Q 500 653 500 1363 
z
" transform="scale(0.015625)"/>
      <path id="DejaVuSans-Bold-65" d="M 4031 1759 
L 4031 1441 
L 1416 1441 
Q 1456 1047 1700 850 
Q 1944 653 2381 653 
Q 2734 653 3104 758 
Q 3475 863 3866 1075 
L 3866 213 
Q 3469 63 3072 -14 
Q 2675 -91 2278 -91 
Q 1328 -91 801 392 
Q 275 875 275 1747 
Q 275 2603 792 3093 
Q 1309 3584 2216 3584 
Q 3041 3584 3536 3087 
Q 4031 2591 4031 1759 
z
M 2881 2131 
Q 2881 2450 2695 2645 
Q 2509 2841 2209 2841 
Q 1884 2841 1681 2658 
Q 1478 2475 1428 2131 
L 2881 2131 
z
" transform="scale(0.015625)"/>
      <path id="DejaVuSans-Bold-73" d="M 3272 3391 
L 3272 2541 
Q 2913 2691 2578 2766 
Q 2244 2841 1947 2841 
Q 1628 2841 1473 2761 
Q 1319 2681 1319 2516 
Q 1319 2381 1436 2309 
Q 1553 2238 1856 2203 
L 2053 2175 
Q 2913 2066 3209 1816 
Q 3506 1566 3506 1031 
Q 3506 472 3093 190 
Q 2681 -91 1863 -91 
Q 1516 -91 1145 -36 
Q 775 19 384 128 
L 384 978 
Q 719 816 1070 734 
Q 1422 653 1784 653 
Q 2113 653 2278 743 
Q 2444 834 2444 1013 
Q 2444 1163 2330 1236 
Q 2216 1309 1875 1350 
L 1678 1375 
Q 931 1469 631 1722 
Q 331 1975 331 2491 
Q 331 3047 712 3315 
Q 1094 3584 1881 3584 
Q 2191 3584 2531 3537 
Q 2872 3491 3272 3391 
z
" transform="scale(0.015625)"/>
     </defs>
     <use xlink:href="#DejaVuSans-Bold-54"/>
     <use xlink:href="#DejaVuSans-Bold-75" x="57.212891"/>
     <use xlink:href="#DejaVuSans-Bold-65" x="128.404297"/>
     <use xlink:href="#DejaVuSans-Bold-73" x="196.226562"/>
     <use xlink:href="#DejaVuSans-Bold-64" x="255.748047"/>
     <use xlink:href="#DejaVuSans-Bold-61" x="327.330078"/>
     <use xlink:href="#DejaVuSans-Bold-79" x="391.685547"/>
    </g>
   </g>
   <g id="line2d_32">
    <path d="M 246.939195 116.248636 
L 257.075169 15.821364 
L 267.211144 57.344178 
L 277.347118 57.344178 
L 287.483093 50.58465 
L 297.619067 31.271713 
L 307.755042 50.58465 
L 317.891016 66.035 
L 328.02699 65.069353 
L 338.162965 57.344178 
L 348.298939 53.481591 
L 358.434914 54.798382 
L 368.570888 76.744901 
L 378.706863 107.470029 
L 388.842837 116.248636 
L 398.978812 116.248636 
" clip-path="url(#pfab82ac3a1)" style="fill: none; stroke: #8f3371; stroke-width: 4; stroke-linecap: square"/>
   </g>
  </g>
  <g id="axes_3">
   <g id="patch_8">
    <path d="M 440.404428 121.27 
L 610.182 121.27 
L 610.182 10.8 
L 440.404428 10.8 
z
" style="fill: #ffffff"/>
   </g>
   <g id="PolyCollection_3"/>
   <g id="matplotlib.axis_5">
    <g id="xtick_11">
     <g id="line2d_33">
      <g>
       <use xlink:href="#m7c56c2b8d1" x="448.006409" y="121.27" style="stroke: #000000; stroke-width: 0.8"/>
      </g>
     </g>
    </g>
    <g id="xtick_12">
     <g id="line2d_34">
      <g>
       <use xlink:href="#m7c56c2b8d1" x="488.550307" y="121.27" style="stroke: #000000; stroke-width: 0.8"/>
      </g>
     </g>
    </g>
    <g id="xtick_13">
     <g id="line2d_35">
      <g>
       <use xlink:href="#m7c56c2b8d1" x="529.094204" y="121.27" style="stroke: #000000; stroke-width: 0.8"/>
      </g>
     </g>
    </g>
    <g id="xtick_14">
     <g id="line2d_36">
      <g>
       <use xlink:href="#m7c56c2b8d1" x="569.638102" y="121.27" style="stroke: #000000; stroke-width: 0.8"/>
      </g>
     </g>
    </g>
    <g id="xtick_15">
     <g id="line2d_37">
      <g>
       <use xlink:href="#m7c56c2b8d1" x="610.182" y="121.27" style="stroke: #000000; stroke-width: 0.8"/>
      </g>
     </g>
    </g>
   </g>
   <g id="matplotlib.axis_6">
    <g id="ytick_9">
     <g id="line2d_38">
      <g>
       <use xlink:href="#ma6901b303a" x="440.404428" y="116.248636" style="stroke: #000000; stroke-width: 0.8"/>
      </g>
     </g>
    </g>
    <g id="ytick_10">
     <g id="line2d_39">
      <g>
       <use xlink:href="#ma6901b303a" x="440.404428" y="87.279231" style="stroke: #000000; stroke-width: 0.8"/>
      </g>
     </g>
    </g>
    <g id="ytick_11">
     <g id="line2d_40">
      <g>
       <use xlink:href="#ma6901b303a" x="440.404428" y="58.309825" style="stroke: #000000; stroke-width: 0.8"/>
      </g>
     </g>
    </g>
    <g id="ytick_12">
     <g id="line2d_41">
      <g>
       <use xlink:href="#ma6901b303a" x="440.404428" y="29.34042" style="stroke: #000000; stroke-width: 0.8"/>
      </g>
     </g>
    </g>
   </g>
   <g id="line2d_42">
    <path d="M 448.006409 116.248636 
L 458.142383 52.274532 
L 468.278358 65.069353 
L 478.414332 30.413361 
L 488.550307 26.443479 
L 498.686281 53.481591 
L 508.822255 21.829833 
L 518.95823 33.632183 
L 529.094204 69.039235 
L 539.230179 65.820412 
L 549.366153 86.20629 
L 559.502128 111.956873 
L 569.638102 116.248636 
L 579.774077 116.248636 
L 589.910051 116.248636 
L 600.046026 116.248636 
" clip-path="url(#p75da567384)" style="fill: none; stroke: #b2b2b2; stroke-linecap: square"/>
   </g>
   <g id="line2d_43">
    <path d="M 448.006409 116.248636 
L 458.142383 69.039235 
L 468.278358 69.039235 
L 478.414332 38.996888 
L 488.550307 37.065594 
L 498.686281 25.048656 
L 508.822255 49.619003 
L 518.95823 54.447238 
L 529.094204 63.138059 
L 539.230179 55.412885 
L 549.366153 30.306066 
L 559.502128 31.271713 
L 569.638102 59.275472 
L 579.774077 106.592168 
L 589.910051 116.248636 
L 600.046026 116.248636 
" clip-path="url(#p75da567384)" style="fill: none; stroke: #b2b2b2; stroke-linecap: square"/>
   </g>
   <g id="line2d_44">
    <path d="M 448.006409 116.248636 
L 458.142383 113.834519 
L 468.278358 89.693348 
L 478.414332 44.361593 
L 488.550307 55.091002 
L 498.686281 99.081581 
L 508.822255 116.248636 
L 518.95823 116.248636 
L 529.094204 116.248636 
L 539.230179 116.248636 
L 549.366153 116.248636 
L 559.502128 116.248636 
L 569.638102 116.248636 
L 579.774077 116.248636 
L 589.910051 116.248636 
L 600.046026 116.248636 
" clip-path="url(#p75da567384)" style="fill: none; stroke: #b2b2b2; stroke-linecap: square"/>
   </g>
   <g id="line2d_45">
    <path d="M 448.006409 116.248636 
L 458.142383 71.477737 
L 468.278358 78.588409 
L 478.414332 46.019774 
L 488.550307 49.619003 
L 498.686281 47.68771 
L 508.822255 54.798382 
L 518.95823 70.599876 
L 529.094204 73.233458 
L 539.230179 70.599876 
L 549.366153 57.431964 
L 559.502128 61.821268 
L 569.638102 87.279231 
L 579.774077 108.347889 
L 589.910051 116.248636 
L 600.046026 116.248636 
" clip-path="url(#p75da567384)" style="fill: none; stroke: #b2b2b2; stroke-linecap: square"/>
   </g>
   <g id="line2d_46">
    <path d="M 448.006409 116.248636 
L 458.142383 15.821364 
L 468.278358 57.344178 
L 478.414332 57.344178 
L 488.550307 50.58465 
L 498.686281 31.271713 
L 508.822255 50.58465 
L 518.95823 66.035 
L 529.094204 65.069353 
L 539.230179 57.344178 
L 549.366153 53.481591 
L 559.502128 54.798382 
L 569.638102 76.744901 
L 579.774077 107.470029 
L 589.910051 116.248636 
L 600.046026 116.248636 
" clip-path="url(#p75da567384)" style="fill: none; stroke: #b2b2b2; stroke-linecap: square"/>
   </g>
   <g id="line2d_47">
    <path d="M 448.006409 116.248636 
L 458.142383 50.409078 
L 468.278358 67.966294 
L 478.414332 50.409078 
L 488.550307 48.653357 
L 498.686281 37.241167 
L 508.822255 46.019774 
L 518.95823 58.309825 
L 529.094204 68.844154 
L 539.230179 47.775496 
L 549.366153 32.851863 
L 559.502128 50.409078 
L 569.638102 82.889927 
L 579.774077 113.615054 
L 589.910051 116.248636 
L 600.046026 116.248636 
" clip-path="url(#p75da567384)" style="fill: none; stroke: #b2b2b2; stroke-linecap: square"/>
   </g>
   <g id="patch_9">
    <path d="M 440.404428 121.27 
L 440.404428 10.8 
" style="fill: none; stroke: #000000; stroke-width: 0.8; stroke-linejoin: miter; stroke-linecap: square"/>
   </g>
   <g id="patch_10">
    <path d="M 440.404428 121.27 
L 610.182 121.27 
" style="fill: none; stroke: #000000; stroke-width: 0.8; stroke-linejoin: miter; stroke-linecap: square"/>
   </g>
   <g id="text_8">
    <!-- Wednesday -->
    <g transform="translate(576.226486 27.3705)scale(0.1 -0.1)">
     <defs>
      <path id="DejaVuSans-Bold-57" d="M 191 4666 
L 1344 4666 
L 2150 1275 
L 2950 4666 
L 4109 4666 
L 4909 1275 
L 5716 4666 
L 6859 4666 
L 5759 0 
L 4372 0 
L 3525 3547 
L 2688 0 
L 1300 0 
L 191 4666 
z
" transform="scale(0.015625)"/>
     </defs>
     <use xlink:href="#DejaVuSans-Bold-57"/>
     <use xlink:href="#DejaVuSans-Bold-65" x="106.677734"/>
     <use xlink:href="#DejaVuSans-Bold-64" x="174.5"/>
     <use xlink:href="#DejaVuSans-Bold-6e" x="246.082031"/>
     <use xlink:href="#DejaVuSans-Bold-65" x="317.273438"/>
     <use xlink:href="#DejaVuSans-Bold-73" x="385.095703"/>
     <use xlink:href="#DejaVuSans-Bold-64" x="444.617188"/>
     <use xlink:href="#DejaVuSans-Bold-61" x="516.199219"/>
     <use xlink:href="#DejaVuSans-Bold-79" x="580.554688"/>
    </g>
   </g>
   <g id="line2d_48">
    <path d="M 448.006409 116.248636 
L 458.142383 50.409078 
L 468.278358 67.966294 
L 478.414332 50.409078 
L 488.550307 48.653357 
L 498.686281 37.241167 
L 508.822255 46.019774 
L 518.95823 58.309825 
L 529.094204 68.844154 
L 539.230179 47.775496 
L 549.366153 32.851863 
L 559.502128 50.409078 
L 569.638102 82.889927 
L 579.774077 113.615054 
L 589.910051 116.248636 
L 600.046026 116.248636 
" clip-path="url(#p75da567384)" style="fill: none; stroke: #6c2b6d; stroke-width: 4; stroke-linecap: square"/>
   </g>
  </g>
  <g id="axes_4">
   <g id="patch_11">
    <path d="M 38.27 246.04 
L 208.047572 246.04 
L 208.047572 135.57 
L 38.27 135.57 
z
" style="fill: #ffffff"/>
   </g>
   <g id="PolyCollection_4"/>
   <g id="matplotlib.axis_7">
    <g id="xtick_16">
     <g id="line2d_49">
      <g>
       <use xlink:href="#m7c56c2b8d1" x="45.871981" y="246.04" style="stroke: #000000; stroke-width: 0.8"/>
      </g>
     </g>
     <g id="text_9">
      <!-- 06:00 -->
      <g transform="translate(31.462606 260.638438)scale(0.1 -0.1)">
       <defs>
        <path id="DejaVuSans-3a" d="M 750 794 
L 1409 794 
L 1409 0 
L 750 0 
L 750 794 
z
M 750 3309 
L 1409 3309 
L 1409 2516 
L 750 2516 
L 750 3309 
z
" transform="scale(0.015625)"/>
       </defs>
       <use xlink:href="#DejaVuSans-30"/>
       <use xlink:href="#DejaVuSans-36" x="63.623047"/>
       <use xlink:href="#DejaVuSans-3a" x="127.246094"/>
       <use xlink:href="#DejaVuSans-30" x="160.9375"/>
       <use xlink:href="#DejaVuSans-30" x="224.560547"/>
      </g>
     </g>
    </g>
    <g id="xtick_17">
     <g id="line2d_50">
      <g>
       <use xlink:href="#m7c56c2b8d1" x="86.415879" y="246.04" style="stroke: #000000; stroke-width: 0.8"/>
      </g>
     </g>
     <g id="text_10">
      <!-- 10:00 -->
      <g transform="translate(72.006504 260.638438)scale(0.1 -0.1)">
       <defs>
        <path id="DejaVuSans-31" d="M 794 531 
L 1825 531 
L 1825 4091 
L 703 3866 
L 703 4441 
L 1819 4666 
L 2450 4666 
L 2450 531 
L 3481 531 
L 3481 0 
L 794 0 
L 794 531 
z
" transform="scale(0.015625)"/>
       </defs>
       <use xlink:href="#DejaVuSans-31"/>
       <use xlink:href="#DejaVuSans-30" x="63.623047"/>
       <use xlink:href="#DejaVuSans-3a" x="127.246094"/>
       <use xlink:href="#DejaVuSans-30" x="160.9375"/>
       <use xlink:href="#DejaVuSans-30" x="224.560547"/>
      </g>
     </g>
    </g>
    <g id="xtick_18">
     <g id="line2d_51">
      <g>
       <use xlink:href="#m7c56c2b8d1" x="126.959776" y="246.04" style="stroke: #000000; stroke-width: 0.8"/>
      </g>
     </g>
     <g id="text_11">
      <!-- 14:00 -->
      <g transform="translate(112.550401 260.638438)scale(0.1 -0.1)">
       <defs>
        <path id="DejaVuSans-34" d="M 2419 4116 
L 825 1625 
L 2419 1625 
L 2419 4116 
z
M 2253 4666 
L 3047 4666 
L 3047 1625 
L 3713 1625 
L 3713 1100 
L 3047 1100 
L 3047 0 
L 2419 0 
L 2419 1100 
L 313 1100 
L 313 1709 
L 2253 4666 
z
" transform="scale(0.015625)"/>
       </defs>
       <use xlink:href="#DejaVuSans-31"/>
       <use xlink:href="#DejaVuSans-34" x="63.623047"/>
       <use xlink:href="#DejaVuSans-3a" x="127.246094"/>
       <use xlink:href="#DejaVuSans-30" x="160.9375"/>
       <use xlink:href="#DejaVuSans-30" x="224.560547"/>
      </g>
     </g>
    </g>
    <g id="xtick_19">
     <g id="line2d_52">
      <g>
       <use xlink:href="#m7c56c2b8d1" x="167.503674" y="246.04" style="stroke: #000000; stroke-width: 0.8"/>
      </g>
     </g>
     <g id="text_12">
      <!-- 18:00 -->
      <g transform="translate(153.094299 260.638438)scale(0.1 -0.1)">
       <defs>
        <path id="DejaVuSans-38" d="M 2034 2216 
Q 1584 2216 1326 1975 
Q 1069 1734 1069 1313 
Q 1069 891 1326 650 
Q 1584 409 2034 409 
Q 2484 409 2743 651 
Q 3003 894 3003 1313 
Q 3003 1734 2745 1975 
Q 2488 2216 2034 2216 
z
M 1403 2484 
Q 997 2584 770 2862 
Q 544 3141 544 3541 
Q 544 4100 942 4425 
Q 1341 4750 2034 4750 
Q 2731 4750 3128 4425 
Q 3525 4100 3525 3541 
Q 3525 3141 3298 2862 
Q 3072 2584 2669 2484 
Q 3125 2378 3379 2068 
Q 3634 1759 3634 1313 
Q 3634 634 3220 271 
Q 2806 -91 2034 -91 
Q 1263 -91 848 271 
Q 434 634 434 1313 
Q 434 1759 690 2068 
Q 947 2378 1403 2484 
z
M 1172 3481 
Q 1172 3119 1398 2916 
Q 1625 2713 2034 2713 
Q 2441 2713 2670 2916 
Q 2900 3119 2900 3481 
Q 2900 3844 2670 4047 
Q 2441 4250 2034 4250 
Q 1625 4250 1398 4047 
Q 1172 3844 1172 3481 
z
" transform="scale(0.015625)"/>
       </defs>
       <use xlink:href="#DejaVuSans-31"/>
       <use xlink:href="#DejaVuSans-38" x="63.623047"/>
       <use xlink:href="#DejaVuSans-3a" x="127.246094"/>
       <use xlink:href="#DejaVuSans-30" x="160.9375"/>
       <use xlink:href="#DejaVuSans-30" x="224.560547"/>
      </g>
     </g>
    </g>
    <g id="xtick_20">
     <g id="line2d_53">
      <g>
       <use xlink:href="#m7c56c2b8d1" x="208.047572" y="246.04" style="stroke: #000000; stroke-width: 0.8"/>
      </g>
     </g>
     <g id="text_13">
      <!-- 22:00 -->
      <g transform="translate(193.638197 260.638438)scale(0.1 -0.1)">
       <defs>
        <path id="DejaVuSans-32" d="M 1228 531 
L 3431 531 
L 3431 0 
L 469 0 
L 469 531 
Q 828 903 1448 1529 
Q 2069 2156 2228 2338 
Q 2531 2678 2651 2914 
Q 2772 3150 2772 3378 
Q 2772 3750 2511 3984 
Q 2250 4219 1831 4219 
Q 1534 4219 1204 4116 
Q 875 4013 500 3803 
L 500 4441 
Q 881 4594 1212 4672 
Q 1544 4750 1819 4750 
Q 2544 4750 2975 4387 
Q 3406 4025 3406 3419 
Q 3406 3131 3298 2873 
Q 3191 2616 2906 2266 
Q 2828 2175 2409 1742 
Q 1991 1309 1228 531 
z
" transform="scale(0.015625)"/>
       </defs>
       <use xlink:href="#DejaVuSans-32"/>
       <use xlink:href="#DejaVuSans-32" x="63.623047"/>
       <use xlink:href="#DejaVuSans-3a" x="127.246094"/>
       <use xlink:href="#DejaVuSans-30" x="160.9375"/>
       <use xlink:href="#DejaVuSans-30" x="224.560547"/>
      </g>
     </g>
    </g>
    <g id="text_14">
     <!-- Hour -->
     <g transform="translate(111.115036 274.316562)scale(0.1 -0.1)">
      <defs>
       <path id="DejaVuSans-48" d="M 628 4666 
L 1259 4666 
L 1259 2753 
L 3553 2753 
L 3553 4666 
L 4184 4666 
L 4184 0 
L 3553 0 
L 3553 2222 
L 1259 2222 
L 1259 0 
L 628 0 
L 628 4666 
z
" transform="scale(0.015625)"/>
       <path id="DejaVuSans-75" d="M 544 1381 
L 544 3500 
L 1119 3500 
L 1119 1403 
Q 1119 906 1312 657 
Q 1506 409 1894 409 
Q 2359 409 2629 706 
Q 2900 1003 2900 1516 
L 2900 3500 
L 3475 3500 
L 3475 0 
L 2900 0 
L 2900 538 
Q 2691 219 2414 64 
Q 2138 -91 1772 -91 
Q 1169 -91 856 284 
Q 544 659 544 1381 
z
M 1991 3584 
L 1991 3584 
z
" transform="scale(0.015625)"/>
       <path id="DejaVuSans-72" d="M 2631 2963 
Q 2534 3019 2420 3045 
Q 2306 3072 2169 3072 
Q 1681 3072 1420 2755 
Q 1159 2438 1159 1844 
L 1159 0 
L 581 0 
L 581 3500 
L 1159 3500 
L 1159 2956 
Q 1341 3275 1631 3429 
Q 1922 3584 2338 3584 
Q 2397 3584 2469 3576 
Q 2541 3569 2628 3553 
L 2631 2963 
z
" transform="scale(0.015625)"/>
      </defs>
      <use xlink:href="#DejaVuSans-48"/>
      <use xlink:href="#DejaVuSans-6f" x="75.195312"/>
      <use xlink:href="#DejaVuSans-75" x="136.376953"/>
      <use xlink:href="#DejaVuSans-72" x="199.755859"/>
     </g>
    </g>
   </g>
   <g id="matplotlib.axis_8">
    <g id="ytick_13">
     <g id="line2d_54">
      <g>
       <use xlink:href="#ma6901b303a" x="38.27" y="241.018636" style="stroke: #000000; stroke-width: 0.8"/>
      </g>
     </g>
     <g id="text_15">
      <!-- 0 -->
      <g transform="translate(24.9075 244.817855)scale(0.1 -0.1)">
       <use xlink:href="#DejaVuSans-30"/>
      </g>
     </g>
    </g>
    <g id="ytick_14">
     <g id="line2d_55">
      <g>
       <use xlink:href="#ma6901b303a" x="38.27" y="212.049231" style="stroke: #000000; stroke-width: 0.8"/>
      </g>
     </g>
     <g id="text_16">
      <!-- 3 -->
      <g transform="translate(24.9075 215.84845)scale(0.1 -0.1)">
       <use xlink:href="#DejaVuSans-33"/>
      </g>
     </g>
    </g>
    <g id="ytick_15">
     <g id="line2d_56">
      <g>
       <use xlink:href="#ma6901b303a" x="38.27" y="183.079825" style="stroke: #000000; stroke-width: 0.8"/>
      </g>
     </g>
     <g id="text_17">
      <!-- 6 -->
      <g transform="translate(24.9075 186.879044)scale(0.1 -0.1)">
       <use xlink:href="#DejaVuSans-36"/>
      </g>
     </g>
    </g>
    <g id="ytick_16">
     <g id="line2d_57">
      <g>
       <use xlink:href="#ma6901b303a" x="38.27" y="154.11042" style="stroke: #000000; stroke-width: 0.8"/>
      </g>
     </g>
     <g id="text_18">
      <!-- 9 -->
      <g transform="translate(24.9075 157.909638)scale(0.1 -0.1)">
       <use xlink:href="#DejaVuSans-39"/>
      </g>
     </g>
    </g>
    <g id="text_19">
     <!-- Logins -->
     <g transform="translate(18.827813 206.899531)rotate(-90)scale(0.1 -0.1)">
      <use xlink:href="#DejaVuSans-4c"/>
      <use xlink:href="#DejaVuSans-6f" x="53.962891"/>
      <use xlink:href="#DejaVuSans-67" x="115.144531"/>
      <use xlink:href="#DejaVuSans-69" x="178.621094"/>
      <use xlink:href="#DejaVuSans-6e" x="206.404297"/>
      <use xlink:href="#DejaVuSans-73" x="269.783203"/>
     </g>
    </g>
   </g>
   <g id="line2d_58">
    <path d="M 45.871981 241.018636 
L 56.007955 177.044532 
L 66.14393 189.839353 
L 76.279904 155.183361 
L 86.415879 151.213479 
L 96.551853 178.251591 
L 106.687828 146.599833 
L 116.823802 158.402183 
L 126.959776 193.809235 
L 137.095751 190.590412 
L 147.231725 210.97629 
L 157.3677 236.726873 
L 167.503674 241.018636 
L 177.639649 241.018636 
L 187.775623 241.018636 
L 197.911598 241.018636 
" clip-path="url(#pcaa061264d)" style="fill: none; stroke: #b2b2b2; stroke-linecap: square"/>
   </g>
   <g id="line2d_59">
    <path d="M 45.871981 241.018636 
L 56.007955 193.809235 
L 66.14393 193.809235 
L 76.279904 163.766888 
L 86.415879 161.835594 
L 96.551853 149.818656 
L 106.687828 174.389003 
L 116.823802 179.217238 
L 126.959776 187.908059 
L 137.095751 180.182885 
L 147.231725 155.076066 
L 157.3677 156.041713 
L 167.503674 184.045472 
L 177.639649 231.362168 
L 187.775623 241.018636 
L 197.911598 241.018636 
" clip-path="url(#pcaa061264d)" style="fill: none; stroke: #b2b2b2; stroke-linecap: square"/>
   </g>
   <g id="line2d_60">
    <path d="M 45.871981 241.018636 
L 56.007955 238.604519 
L 66.14393 214.463348 
L 76.279904 169.131593 
L 86.415879 179.861002 
L 96.551853 223.851581 
L 106.687828 241.018636 
L 116.823802 241.018636 
L 126.959776 241.018636 
L 137.095751 241.018636 
L 147.231725 241.018636 
L 157.3677 241.018636 
L 167.503674 241.018636 
L 177.639649 241.018636 
L 187.775623 241.018636 
L 197.911598 241.018636 
" clip-path="url(#pcaa061264d)" style="fill: none; stroke: #b2b2b2; stroke-linecap: square"/>
   </g>
   <g id="line2d_61">
    <path d="M 45.871981 241.018636 
L 56.007955 196.247737 
L 66.14393 203.358409 
L 76.279904 170.789774 
L 86.415879 174.389003 
L 96.551853 172.45771 
L 106.687828 179.568382 
L 116.823802 195.369876 
L 126.959776 198.003458 
L 137.095751 195.369876 
L 147.231725 182.201964 
L 157.3677 186.591268 
L 167.503674 212.049231 
L 177.639649 233.117889 
L 187.775623 241.018636 
L 197.911598 241.018636 
" clip-path="url(#pcaa061264d)" style="fill: none; stroke: #b2b2b2; stroke-linecap: square"/>
   </g>
   <g id="line2d_62">
    <path d="M 45.871981 241.018636 
L 56.007955 140.591364 
L 66.14393 182.114178 
L 76.279904 182.114178 
L 86.415879 175.35465 
L 96.551853 156.041713 
L 106.687828 175.35465 
L 116.823802 190.805 
L 126.959776 189.839353 
L 137.095751 182.114178 
L 147.231725 178.251591 
L 157.3677 179.568382 
L 167.503674 201.514901 
L 177.639649 232.240029 
L 187.775623 241.018636 
L 197.911598 241.018636 
" clip-path="url(#pcaa061264d)" style="fill: none; stroke: #b2b2b2; stroke-linecap: square"/>
   </g>
   <g id="line2d_63">
    <path d="M 45.871981 241.018636 
L 56.007955 175.179078 
L 66.14393 192.736294 
L 76.279904 175.179078 
L 86.415879 173.423357 
L 96.551853 162.011167 
L 106.687828 170.789774 
L 116.823802 183.079825 
L 126.959776 193.614154 
L 137.095751 172.545496 
L 147.231725 157.621863 
L 157.3677 175.179078 
L 167.503674 207.659927 
L 177.639649 238.385054 
L 187.775623 241.018636 
L 197.911598 241.018636 
" clip-path="url(#pcaa061264d)" style="fill: none; stroke: #b2b2b2; stroke-linecap: square"/>
   </g>
   <g id="patch_12">
    <path d="M 38.27 246.04 
L 38.27 135.57 
" style="fill: none; stroke: #000000; stroke-width: 0.8; stroke-linejoin: miter; stroke-linecap: square"/>
   </g>
   <g id="patch_13">
    <path d="M 38.27 246.04 
L 208.047572 246.04 
" style="fill: none; stroke: #000000; stroke-width: 0.8; stroke-linejoin: miter; stroke-linecap: square"/>
   </g>
   <g id="text_20">
    <!-- Thursday -->
    <g transform="translate(174.092058 152.1405)scale(0.1 -0.1)">
     <defs>
      <path id="DejaVuSans-Bold-68" d="M 4056 2131 
L 4056 0 
L 2931 0 
L 2931 347 
L 2931 1625 
Q 2931 2084 2911 2256 
Q 2891 2428 2841 2509 
Q 2775 2619 2662 2680 
Q 2550 2741 2406 2741 
Q 2056 2741 1856 2470 
Q 1656 2200 1656 1722 
L 1656 0 
L 538 0 
L 538 4863 
L 1656 4863 
L 1656 2988 
Q 1909 3294 2193 3439 
Q 2478 3584 2822 3584 
Q 3428 3584 3742 3212 
Q 4056 2841 4056 2131 
z
" transform="scale(0.015625)"/>
      <path id="DejaVuSans-Bold-72" d="M 3138 2547 
Q 2991 2616 2845 2648 
Q 2700 2681 2553 2681 
Q 2122 2681 1889 2404 
Q 1656 2128 1656 1613 
L 1656 0 
L 538 0 
L 538 3500 
L 1656 3500 
L 1656 2925 
Q 1872 3269 2151 3426 
Q 2431 3584 2822 3584 
Q 2878 3584 2943 3579 
Q 3009 3575 3134 3559 
L 3138 2547 
z
" transform="scale(0.015625)"/>
     </defs>
     <use xlink:href="#DejaVuSans-Bold-54"/>
     <use xlink:href="#DejaVuSans-Bold-68" x="68.212891"/>
     <use xlink:href="#DejaVuSans-Bold-75" x="139.404297"/>
     <use xlink:href="#DejaVuSans-Bold-72" x="210.595703"/>
     <use xlink:href="#DejaVuSans-Bold-73" x="259.912109"/>
     <use xlink:href="#DejaVuSans-Bold-64" x="319.433594"/>
     <use xlink:href="#DejaVuSans-Bold-61" x="391.015625"/>
     <use xlink:href="#DejaVuSans-Bold-79" x="455.371094"/>
    </g>
   </g>
   <g id="line2d_64">
    <path d="M 45.871981 241.018636 
L 56.007955 196.247737 
L 66.14393 203.358409 
L 76.279904 170.789774 
L 86.415879 174.389003 
L 96.551853 172.45771 
L 106.687828 179.568382 
L 116.823802 195.369876 
L 126.959776 198.003458 
L 137.095751 195.369876 
L 147.231725 182.201964 
L 157.3677 186.591268 
L 167.503674 212.049231 
L 177.639649 233.117889 
L 187.775623 241.018636 
L 197.911598 241.018636 
" clip-path="url(#pcaa061264d)" style="fill: none; stroke: #b13c6c; stroke-width: 4; stroke-linecap: square"/>
   </g>
  </g>
  <g id="axes_5">
   <g id="patch_14">
    <path d="M 239.337214 246.04 
L 409.114786 246.04 
L 409.114786 135.57 
L 239.337214 135.57 
z
" style="fill: #ffffff"/>
   </g>
   <g id="PolyCollection_5"/>
   <g id="matplotlib.axis_9">
    <g id="xtick_21">
     <g id="line2d_65">
      <g>
       <use xlink:href="#m7c56c2b8d1" x="246.939195" y="246.04" style="stroke: #000000; stroke-width: 0.8"/>
      </g>
     </g>
     <g id="text_21">
      <!-- 06:00 -->
      <g transform="translate(232.52982 260.638438)scale(0.1 -0.1)">
       <use xlink:href="#DejaVuSans-30"/>
       <use xlink:href="#DejaVuSans-36" x="63.623047"/>
       <use xlink:href="#DejaVuSans-3a" x="127.246094"/>
       <use xlink:href="#DejaVuSans-30" x="160.9375"/>
       <use xlink:href="#DejaVuSans-30" x="224.560547"/>
      </g>
     </g>
    </g>
    <g id="xtick_22">
     <g id="line2d_66">
      <g>
       <use xlink:href="#m7c56c2b8d1" x="287.483093" y="246.04" style="stroke: #000000; stroke-width: 0.8"/>
      </g>
     </g>
     <g id="text_22">
      <!-- 10:00 -->
      <g transform="translate(273.073718 260.638438)scale(0.1 -0.1)">
       <use xlink:href="#DejaVuSans-31"/>
       <use xlink:href="#DejaVuSans-30" x="63.623047"/>
       <use xlink:href="#DejaVuSans-3a" x="127.246094"/>
       <use xlink:href="#DejaVuSans-30" x="160.9375"/>
       <use xlink:href="#DejaVuSans-30" x="224.560547"/>
      </g>
     </g>
    </g>
    <g id="xtick_23">
     <g id="line2d_67">
      <g>
       <use xlink:href="#m7c56c2b8d1" x="328.02699" y="246.04" style="stroke: #000000; stroke-width: 0.8"/>
      </g>
     </g>
     <g id="text_23">
      <!-- 14:00 -->
      <g transform="translate(313.617615 260.638438)scale(0.1 -0.1)">
       <use xlink:href="#DejaVuSans-31"/>
       <use xlink:href="#DejaVuSans-34" x="63.623047"/>
       <use xlink:href="#DejaVuSans-3a" x="127.246094"/>
       <use xlink:href="#DejaVuSans-30" x="160.9375"/>
       <use xlink:href="#DejaVuSans-30" x="224.560547"/>
      </g>
     </g>
    </g>
    <g id="xtick_24">
     <g id="line2d_68">
      <g>
       <use xlink:href="#m7c56c2b8d1" x="368.570888" y="246.04" style="stroke: #000000; stroke-width: 0.8"/>
      </g>
     </g>
     <g id="text_24">
      <!-- 18:00 -->
      <g transform="translate(354.161513 260.638438)scale(0.1 -0.1)">
       <use xlink:href="#DejaVuSans-31"/>
       <use xlink:href="#DejaVuSans-38" x="63.623047"/>
       <use xlink:href="#DejaVuSans-3a" x="127.246094"/>
       <use xlink:href="#DejaVuSans-30" x="160.9375"/>
       <use xlink:href="#DejaVuSans-30" x="224.560547"/>
      </g>
     </g>
    </g>
    <g id="xtick_25">
     <g id="line2d_69">
      <g>
       <use xlink:href="#m7c56c2b8d1" x="409.114786" y="246.04" style="stroke: #000000; stroke-width: 0.8"/>
      </g>
     </g>
     <g id="text_25">
      <!-- 22:00 -->
      <g transform="translate(394.705411 260.638438)scale(0.1 -0.1)">
       <use xlink:href="#DejaVuSans-32"/>
       <use xlink:href="#DejaVuSans-32" x="63.623047"/>
       <use xlink:href="#DejaVuSans-3a" x="127.246094"/>
       <use xlink:href="#DejaVuSans-30" x="160.9375"/>
       <use xlink:href="#DejaVuSans-30" x="224.560547"/>
      </g>
     </g>
    </g>
    <g id="text_26">
     <!-- Hour -->
     <g transform="translate(312.18225 274.316562)scale(0.1 -0.1)">
      <use xlink:href="#DejaVuSans-48"/>
      <use xlink:href="#DejaVuSans-6f" x="75.195312"/>
      <use xlink:href="#DejaVuSans-75" x="136.376953"/>
      <use xlink:href="#DejaVuSans-72" x="199.755859"/>
     </g>
    </g>
   </g>
   <g id="matplotlib.axis_10">
    <g id="ytick_17">
     <g id="line2d_70">
      <g>
       <use xlink:href="#ma6901b303a" x="239.337214" y="241.018636" style="stroke: #000000; stroke-width: 0.8"/>
      </g>
     </g>
    </g>
    <g id="ytick_18">
     <g id="line2d_71">
      <g>
       <use xlink:href="#ma6901b303a" x="239.337214" y="212.049231" style="stroke: #000000; stroke-width: 0.8"/>
      </g>
     </g>
    </g>
    <g id="ytick_19">
     <g id="line2d_72">
      <g>
       <use xlink:href="#ma6901b303a" x="239.337214" y="183.079825" style="stroke: #000000; stroke-width: 0.8"/>
      </g>
     </g>
    </g>
    <g id="ytick_20">
     <g id="line2d_73">
      <g>
       <use xlink:href="#ma6901b303a" x="239.337214" y="154.11042" style="stroke: #000000; stroke-width: 0.8"/>
      </g>
     </g>
    </g>
   </g>
   <g id="line2d_74">
    <path d="M 246.939195 241.018636 
L 257.075169 177.044532 
L 267.211144 189.839353 
L 277.347118 155.183361 
L 287.483093 151.213479 
L 297.619067 178.251591 
L 307.755042 146.599833 
L 317.891016 158.402183 
L 328.02699 193.809235 
L 338.162965 190.590412 
L 348.298939 210.97629 
L 358.434914 236.726873 
L 368.570888 241.018636 
L 378.706863 241.018636 
L 388.842837 241.018636 
L 398.978812 241.018636 
" clip-path="url(#ped41504bab)" style="fill: none; stroke: #b2b2b2; stroke-linecap: square"/>
   </g>
   <g id="line2d_75">
    <path d="M 246.939195 241.018636 
L 257.075169 193.809235 
L 267.211144 193.809235 
L 277.347118 163.766888 
L 287.483093 161.835594 
L 297.619067 149.818656 
L 307.755042 174.389003 
L 317.891016 179.217238 
L 328.02699 187.908059 
L 338.162965 180.182885 
L 348.298939 155.076066 
L 358.434914 156.041713 
L 368.570888 184.045472 
L 378.706863 231.362168 
L 388.842837 241.018636 
L 398.978812 241.018636 
" clip-path="url(#ped41504bab)" style="fill: none; stroke: #b2b2b2; stroke-linecap: square"/>
   </g>
   <g id="line2d_76">
    <path d="M 246.939195 241.018636 
L 257.075169 238.604519 
L 267.211144 214.463348 
L 277.347118 169.131593 
L 287.483093 179.861002 
L 297.619067 223.851581 
L 307.755042 241.018636 
L 317.891016 241.018636 
L 328.02699 241.018636 
L 338.162965 241.018636 
L 348.298939 241.018636 
L 358.434914 241.018636 
L 368.570888 241.018636 
L 378.706863 241.018636 
L 388.842837 241.018636 
L 398.978812 241.018636 
" clip-path="url(#ped41504bab)" style="fill: none; stroke: #b2b2b2; stroke-linecap: square"/>
   </g>
   <g id="line2d_77">
    <path d="M 246.939195 241.018636 
L 257.075169 196.247737 
L 267.211144 203.358409 
L 277.347118 170.789774 
L 287.483093 174.389003 
L 297.619067 172.45771 
L 307.755042 179.568382 
L 317.891016 195.369876 
L 328.02699 198.003458 
L 338.162965 195.369876 
L 348.298939 182.201964 
L 358.434914 186.591268 
L 368.570888 212.049231 
L 378.706863 233.117889 
L 388.842837 241.018636 
L 398.978812 241.018636 
" clip-path="url(#ped41504bab)" style="fill: none; stroke: #b2b2b2; stroke-linecap: square"/>
   </g>
   <g id="line2d_78">
    <path d="M 246.939195 241.018636 
L 257.075169 140.591364 
L 267.211144 182.114178 
L 277.347118 182.114178 
L 287.483093 175.35465 
L 297.619067 156.041713 
L 307.755042 175.35465 
L 317.891016 190.805 
L 328.02699 189.839353 
L 338.162965 182.114178 
L 348.298939 178.251591 
L 358.434914 179.568382 
L 368.570888 201.514901 
L 378.706863 232.240029 
L 388.842837 241.018636 
L 398.978812 241.018636 
" clip-path="url(#ped41504bab)" style="fill: none; stroke: #b2b2b2; stroke-linecap: square"/>
   </g>
   <g id="line2d_79">
    <path d="M 246.939195 241.018636 
L 257.075169 175.179078 
L 267.211144 192.736294 
L 277.347118 175.179078 
L 287.483093 173.423357 
L 297.619067 162.011167 
L 307.755042 170.789774 
L 317.891016 183.079825 
L 328.02699 193.614154 
L 338.162965 172.545496 
L 348.298939 157.621863 
L 358.434914 175.179078 
L 368.570888 207.659927 
L 378.706863 238.385054 
L 388.842837 241.018636 
L 398.978812 241.018636 
" clip-path="url(#ped41504bab)" style="fill: none; stroke: #b2b2b2; stroke-linecap: square"/>
   </g>
   <g id="patch_15">
    <path d="M 239.337214 246.04 
L 239.337214 135.57 
" style="fill: none; stroke: #000000; stroke-width: 0.8; stroke-linejoin: miter; stroke-linecap: square"/>
   </g>
   <g id="patch_16">
    <path d="M 239.337214 246.04 
L 409.114786 246.04 
" style="fill: none; stroke: #000000; stroke-width: 0.8; stroke-linejoin: miter; stroke-linecap: square"/>
   </g>
   <g id="text_27">
    <!-- Friday -->
    <g transform="translate(375.159272 152.1405)scale(0.1 -0.1)">
     <defs>
      <path id="DejaVuSans-Bold-46" d="M 588 4666 
L 3834 4666 
L 3834 3756 
L 1791 3756 
L 1791 2888 
L 3713 2888 
L 3713 1978 
L 1791 1978 
L 1791 0 
L 588 0 
L 588 4666 
z
" transform="scale(0.015625)"/>
      <path id="DejaVuSans-Bold-69" d="M 538 3500 
L 1656 3500 
L 1656 0 
L 538 0 
L 538 3500 
z
M 538 4863 
L 1656 4863 
L 1656 3950 
L 538 3950 
L 538 4863 
z
" transform="scale(0.015625)"/>
     </defs>
     <use xlink:href="#DejaVuSans-Bold-46"/>
     <use xlink:href="#DejaVuSans-Bold-72" x="61.935547"/>
     <use xlink:href="#DejaVuSans-Bold-69" x="111.251953"/>
     <use xlink:href="#DejaVuSans-Bold-64" x="145.529297"/>
     <use xlink:href="#DejaVuSans-Bold-61" x="217.111328"/>
     <use xlink:href="#DejaVuSans-Bold-79" x="281.466797"/>
    </g>
   </g>
   <g id="line2d_80">
    <path d="M 246.939195 241.018636 
L 257.075169 177.044532 
L 267.211144 189.839353 
L 277.347118 155.183361 
L 287.483093 151.213479 
L 297.619067 178.251591 
L 307.755042 146.599833 
L 317.891016 158.402183 
L 328.02699 193.809235 
L 338.162965 190.590412 
L 348.298939 210.97629 
L 358.434914 236.726873 
L 368.570888 241.018636 
L 378.706863 241.018636 
L 388.842837 241.018636 
L 398.978812 241.018636 
" clip-path="url(#ped41504bab)" style="fill: none; stroke: #e98d6b; stroke-width: 4; stroke-linecap: square"/>
   </g>
  </g>
  <g id="axes_6">
   <g id="patch_17">
    <path d="M 440.404428 246.04 
L 610.182 246.04 
L 610.182 135.57 
L 440.404428 135.57 
z
" style="fill: #ffffff"/>
   </g>
   <g id="PolyCollection_6"/>
   <g id="matplotlib.axis_11">
    <g id="xtick_26">
     <g id="line2d_81">
      <g>
       <use xlink:href="#m7c56c2b8d1" x="448.006409" y="246.04" style="stroke: #000000; stroke-width: 0.8"/>
      </g>
     </g>
     <g id="text_28">
      <!-- 06:00 -->
      <g transform="translate(433.597034 260.638438)scale(0.1 -0.1)">
       <use xlink:href="#DejaVuSans-30"/>
       <use xlink:href="#DejaVuSans-36" x="63.623047"/>
       <use xlink:href="#DejaVuSans-3a" x="127.246094"/>
       <use xlink:href="#DejaVuSans-30" x="160.9375"/>
       <use xlink:href="#DejaVuSans-30" x="224.560547"/>
      </g>
     </g>
    </g>
    <g id="xtick_27">
     <g id="line2d_82">
      <g>
       <use xlink:href="#m7c56c2b8d1" x="488.550307" y="246.04" style="stroke: #000000; stroke-width: 0.8"/>
      </g>
     </g>
     <g id="text_29">
      <!-- 10:00 -->
      <g transform="translate(474.140932 260.638438)scale(0.1 -0.1)">
       <use xlink:href="#DejaVuSans-31"/>
       <use xlink:href="#DejaVuSans-30" x="63.623047"/>
       <use xlink:href="#DejaVuSans-3a" x="127.246094"/>
       <use xlink:href="#DejaVuSans-30" x="160.9375"/>
       <use xlink:href="#DejaVuSans-30" x="224.560547"/>
      </g>
     </g>
    </g>
    <g id="xtick_28">
     <g id="line2d_83">
      <g>
       <use xlink:href="#m7c56c2b8d1" x="529.094204" y="246.04" style="stroke: #000000; stroke-width: 0.8"/>
      </g>
     </g>
     <g id="text_30">
      <!-- 14:00 -->
      <g transform="translate(514.684829 260.638438)scale(0.1 -0.1)">
       <use xlink:href="#DejaVuSans-31"/>
       <use xlink:href="#DejaVuSans-34" x="63.623047"/>
       <use xlink:href="#DejaVuSans-3a" x="127.246094"/>
       <use xlink:href="#DejaVuSans-30" x="160.9375"/>
       <use xlink:href="#DejaVuSans-30" x="224.560547"/>
      </g>
     </g>
    </g>
    <g id="xtick_29">
     <g id="line2d_84">
      <g>
       <use xlink:href="#m7c56c2b8d1" x="569.638102" y="246.04" style="stroke: #000000; stroke-width: 0.8"/>
      </g>
     </g>
     <g id="text_31">
      <!-- 18:00 -->
      <g transform="translate(555.228727 260.638438)scale(0.1 -0.1)">
       <use xlink:href="#DejaVuSans-31"/>
       <use xlink:href="#DejaVuSans-38" x="63.623047"/>
       <use xlink:href="#DejaVuSans-3a" x="127.246094"/>
       <use xlink:href="#DejaVuSans-30" x="160.9375"/>
       <use xlink:href="#DejaVuSans-30" x="224.560547"/>
      </g>
     </g>
    </g>
    <g id="xtick_30">
     <g id="line2d_85">
      <g>
       <use xlink:href="#m7c56c2b8d1" x="610.182" y="246.04" style="stroke: #000000; stroke-width: 0.8"/>
      </g>
     </g>
     <g id="text_32">
      <!-- 22:00 -->
      <g transform="translate(595.772625 260.638438)scale(0.1 -0.1)">
       <use xlink:href="#DejaVuSans-32"/>
       <use xlink:href="#DejaVuSans-32" x="63.623047"/>
       <use xlink:href="#DejaVuSans-3a" x="127.246094"/>
       <use xlink:href="#DejaVuSans-30" x="160.9375"/>
       <use xlink:href="#DejaVuSans-30" x="224.560547"/>
      </g>
     </g>
    </g>
    <g id="text_33">
     <!-- Hour -->
     <g transform="translate(513.249464 274.316562)scale(0.1 -0.1)">
      <use xlink:href="#DejaVuSans-48"/>
      <use xlink:href="#DejaVuSans-6f" x="75.195312"/>
      <use xlink:href="#DejaVuSans-75" x="136.376953"/>
      <use xlink:href="#DejaVuSans-72" x="199.755859"/>
     </g>
    </g>
   </g>
   <g id="matplotlib.axis_12">
    <g id="ytick_21">
     <g id="line2d_86">
      <g>
       <use xlink:href="#ma6901b303a" x="440.404428" y="241.018636" style="stroke: #000000; stroke-width: 0.8"/>
      </g>
     </g>
    </g>
    <g id="ytick_22">
     <g id="line2d_87">
      <g>
       <use xlink:href="#ma6901b303a" x="440.404428" y="212.049231" style="stroke: #000000; stroke-width: 0.8"/>
      </g>
     </g>
    </g>
    <g id="ytick_23">
     <g id="line2d_88">
      <g>
       <use xlink:href="#ma6901b303a" x="440.404428" y="183.079825" style="stroke: #000000; stroke-width: 0.8"/>
      </g>
     </g>
    </g>
    <g id="ytick_24">
     <g id="line2d_89">
      <g>
       <use xlink:href="#ma6901b303a" x="440.404428" y="154.11042" style="stroke: #000000; stroke-width: 0.8"/>
      </g>
     </g>
    </g>
   </g>
   <g id="line2d_90">
    <path d="M 448.006409 241.018636 
L 458.142383 177.044532 
L 468.278358 189.839353 
L 478.414332 155.183361 
L 488.550307 151.213479 
L 498.686281 178.251591 
L 508.822255 146.599833 
L 518.95823 158.402183 
L 529.094204 193.809235 
L 539.230179 190.590412 
L 549.366153 210.97629 
L 559.502128 236.726873 
L 569.638102 241.018636 
L 579.774077 241.018636 
L 589.910051 241.018636 
L 600.046026 241.018636 
" clip-path="url(#pf775b0be78)" style="fill: none; stroke: #b2b2b2; stroke-linecap: square"/>
   </g>
   <g id="line2d_91">
    <path d="M 448.006409 241.018636 
L 458.142383 193.809235 
L 468.278358 193.809235 
L 478.414332 163.766888 
L 488.550307 161.835594 
L 498.686281 149.818656 
L 508.822255 174.389003 
L 518.95823 179.217238 
L 529.094204 187.908059 
L 539.230179 180.182885 
L 549.366153 155.076066 
L 559.502128 156.041713 
L 569.638102 184.045472 
L 579.774077 231.362168 
L 589.910051 241.018636 
L 600.046026 241.018636 
" clip-path="url(#pf775b0be78)" style="fill: none; stroke: #b2b2b2; stroke-linecap: square"/>
   </g>
   <g id="line2d_92">
    <path d="M 448.006409 241.018636 
L 458.142383 238.604519 
L 468.278358 214.463348 
L 478.414332 169.131593 
L 488.550307 179.861002 
L 498.686281 223.851581 
L 508.822255 241.018636 
L 518.95823 241.018636 
L 529.094204 241.018636 
L 539.230179 241.018636 
L 549.366153 241.018636 
L 559.502128 241.018636 
L 569.638102 241.018636 
L 579.774077 241.018636 
L 589.910051 241.018636 
L 600.046026 241.018636 
" clip-path="url(#pf775b0be78)" style="fill: none; stroke: #b2b2b2; stroke-linecap: square"/>
   </g>
   <g id="line2d_93">
    <path d="M 448.006409 241.018636 
L 458.142383 196.247737 
L 468.278358 203.358409 
L 478.414332 170.789774 
L 488.550307 174.389003 
L 498.686281 172.45771 
L 508.822255 179.568382 
L 518.95823 195.369876 
L 529.094204 198.003458 
L 539.230179 195.369876 
L 549.366153 182.201964 
L 559.502128 186.591268 
L 569.638102 212.049231 
L 579.774077 233.117889 
L 589.910051 241.018636 
L 600.046026 241.018636 
" clip-path="url(#pf775b0be78)" style="fill: none; stroke: #b2b2b2; stroke-linecap: square"/>
   </g>
   <g id="line2d_94">
    <path d="M 448.006409 241.018636 
L 458.142383 140.591364 
L 468.278358 182.114178 
L 478.414332 182.114178 
L 488.550307 175.35465 
L 498.686281 156.041713 
L 508.822255 175.35465 
L 518.95823 190.805 
L 529.094204 189.839353 
L 539.230179 182.114178 
L 549.366153 178.251591 
L 559.502128 179.568382 
L 569.638102 201.514901 
L 579.774077 232.240029 
L 589.910051 241.018636 
L 600.046026 241.018636 
" clip-path="url(#pf775b0be78)" style="fill: none; stroke: #b2b2b2; stroke-linecap: square"/>
   </g>
   <g id="line2d_95">
    <path d="M 448.006409 241.018636 
L 458.142383 175.179078 
L 468.278358 192.736294 
L 478.414332 175.179078 
L 488.550307 173.423357 
L 498.686281 162.011167 
L 508.822255 170.789774 
L 518.95823 183.079825 
L 529.094204 193.614154 
L 539.230179 172.545496 
L 549.366153 157.621863 
L 559.502128 175.179078 
L 569.638102 207.659927 
L 579.774077 238.385054 
L 589.910051 241.018636 
L 600.046026 241.018636 
" clip-path="url(#pf775b0be78)" style="fill: none; stroke: #b2b2b2; stroke-linecap: square"/>
   </g>
   <g id="patch_18">
    <path d="M 440.404428 246.04 
L 440.404428 135.57 
" style="fill: none; stroke: #000000; stroke-width: 0.8; stroke-linejoin: miter; stroke-linecap: square"/>
   </g>
   <g id="patch_19">
    <path d="M 440.404428 246.04 
L 610.182 246.04 
" style="fill: none; stroke: #000000; stroke-width: 0.8; stroke-linejoin: miter; stroke-linecap: square"/>
   </g>
   <g id="text_34">
    <!-- Saturday -->
    <g transform="translate(576.226486 152.1405)scale(0.1 -0.1)">
     <defs>
      <path id="DejaVuSans-Bold-53" d="M 3834 4519 
L 3834 3531 
Q 3450 3703 3084 3790 
Q 2719 3878 2394 3878 
Q 1963 3878 1756 3759 
Q 1550 3641 1550 3391 
Q 1550 3203 1689 3098 
Q 1828 2994 2194 2919 
L 2706 2816 
Q 3484 2659 3812 2340 
Q 4141 2022 4141 1434 
Q 4141 663 3683 286 
Q 3225 -91 2284 -91 
Q 1841 -91 1394 -6 
Q 947 78 500 244 
L 500 1259 
Q 947 1022 1364 901 
Q 1781 781 2169 781 
Q 2563 781 2772 912 
Q 2981 1044 2981 1288 
Q 2981 1506 2839 1625 
Q 2697 1744 2272 1838 
L 1806 1941 
Q 1106 2091 782 2419 
Q 459 2747 459 3303 
Q 459 4000 909 4375 
Q 1359 4750 2203 4750 
Q 2588 4750 2994 4692 
Q 3400 4634 3834 4519 
z
" transform="scale(0.015625)"/>
      <path id="DejaVuSans-Bold-74" d="M 1759 4494 
L 1759 3500 
L 2913 3500 
L 2913 2700 
L 1759 2700 
L 1759 1216 
Q 1759 972 1856 886 
Q 1953 800 2241 800 
L 2816 800 
L 2816 0 
L 1856 0 
Q 1194 0 917 276 
Q 641 553 641 1216 
L 641 2700 
L 84 2700 
L 84 3500 
L 641 3500 
L 641 4494 
L 1759 4494 
z
" transform="scale(0.015625)"/>
     </defs>
     <use xlink:href="#DejaVuSans-Bold-53"/>
     <use xlink:href="#DejaVuSans-Bold-61" x="72.021484"/>
     <use xlink:href="#DejaVuSans-Bold-74" x="139.501953"/>
     <use xlink:href="#DejaVuSans-Bold-75" x="187.304688"/>
     <use xlink:href="#DejaVuSans-Bold-72" x="258.496094"/>
     <use xlink:href="#DejaVuSans-Bold-64" x="307.8125"/>
     <use xlink:href="#DejaVuSans-Bold-61" x="379.394531"/>
     <use xlink:href="#DejaVuSans-Bold-79" x="443.75"/>
    </g>
   </g>
   <g id="line2d_96">
    <path d="M 448.006409 241.018636 
L 458.142383 238.604519 
L 468.278358 214.463348 
L 478.414332 169.131593 
L 488.550307 179.861002 
L 498.686281 223.851581 
L 508.822255 241.018636 
L 518.95823 241.018636 
L 529.094204 241.018636 
L 539.230179 241.018636 
L 549.366153 241.018636 
L 559.502128 241.018636 
L 569.638102 241.018636 
L 579.774077 241.018636 
L 589.910051 241.018636 
L 600.046026 241.018636 
" clip-path="url(#pf775b0be78)" style="fill: none; stroke: #d14a61; stroke-width: 4; stroke-linecap: square"/>
   </g>
  </g>
 </g>
 <defs>
  <clipPath id="pe3c2b77e2b">
   <rect x="38.27" y="10.8" width="169.777572" height="110.47"/>
  </clipPath>
  <clipPath id="pfab82ac3a1">
   <rect x="239.337214" y="10.8" width="169.777572" height="110.47"/>
  </clipPath>
  <clipPath id="p75da567384">
   <rect x="440.404428" y="10.8" width="169.777572" height="110.47"/>
  </clipPath>
  <clipPath id="pcaa061264d">
   <rect x="38.27" y="135.57" width="169.777572" height="110.47"/>
  </clipPath>
  <clipPath id="ped41504bab">
   <rect x="239.337214" y="135.57" width="169.777572" height="110.47"/>
  </clipPath>
  <clipPath id="pf775b0be78">
   <rect x="440.404428" y="135.57" width="169.777572" height="110.47"/>
  </clipPath>
 </defs>
</svg>
